<svg width="25" height="16" viewBox="0 0 25 16" fill="none" xmlns="http://www.w3.org/2000/svg">
<path d="M24.5454 4.95546L20.0454 0.45545C19.8332 0.250522 19.549 0.137128 19.254 0.139691C18.9591 0.142254 18.6769 0.260569 18.4683 0.469154C18.2597 0.677738 18.1414 0.959903 18.1389 1.25487C18.1363 1.54985 18.2497 1.83402 18.4546 2.0462C19.4065 2.99817 18.7323 4.62583 17.3861 4.62583H5.75C5.45163 4.62583 5.16548 4.74436 4.95451 4.95534C4.74353 5.16632 4.625 5.45246 4.625 5.75083C4.625 6.0492 4.74353 6.33535 4.95451 6.54633C5.16548 6.75731 5.45163 6.87584 5.75 6.87584H23.75C23.9725 6.87579 24.1899 6.80978 24.3749 6.68616C24.5599 6.56254 24.704 6.38686 24.7891 6.18132C24.8743 5.97578 24.8965 5.74962 24.8532 5.53142C24.8098 5.31323 24.7027 5.11279 24.5454 4.95546Z" fill="url(#paint0_linear_2_2853)"/>
<path d="M19.25 9.125H1.25C1.02754 9.12505 0.810075 9.19105 0.625114 9.31467C0.440153 9.43829 0.295996 9.61398 0.210867 9.81951C0.125738 10.025 0.103459 10.2512 0.146848 10.4694C0.190236 10.6876 0.297344 10.888 0.45463 11.0454L4.95463 15.5454C5.16681 15.7503 5.45098 15.8637 5.74596 15.8611C6.04093 15.8586 6.32309 15.7402 6.53168 15.5317C6.74026 15.3231 6.85857 15.0409 6.86114 14.7459C6.8637 14.451 6.75031 14.1668 6.54538 13.9546C5.59346 13.0027 6.26768 11.375 7.61392 11.375H19.25C19.5484 11.375 19.8345 11.2565 20.0455 11.0455C20.2565 10.8345 20.375 10.5484 20.375 10.25C20.375 9.95163 20.2565 9.66548 20.0455 9.4545C19.8345 9.24353 19.5484 9.125 19.25 9.125Z" fill="url(#paint1_linear_2_2853)"/>
<defs>
<linearGradient id="paint0_linear_2_2853" x1="5.6724" y1="0.588728" x2="20.468" y2="11.554" gradientUnits="userSpaceOnUse">
<stop stop-color="#6763FD"/>
<stop offset="1" stop-color="#B84EF1"/>
</linearGradient>
<linearGradient id="paint1_linear_2_2853" x1="1.17265" y1="9.57408" x2="15.9682" y2="20.5393" gradientUnits="userSpaceOnUse">
<stop stop-color="#6763FD"/>
<stop offset="1" stop-color="#B84EF1"/>
</linearGradient>
</defs>
</svg>
