<svg width="33" height="26" viewBox="0 0 33 26" fill="none" xmlns="http://www.w3.org/2000/svg">
<path fill-rule="evenodd" clip-rule="evenodd" d="M29.4375 23.125C29.7482 23.125 30 22.8732 30 22.5625V22C30 21.379 30.504 20.875 31.125 20.875C31.746 20.875 32.25 21.379 32.25 22V24.25C32.25 24.8716 31.7466 25.375 31.125 25.375H1.875C1.25344 25.375 0.75 24.8716 0.75 24.25V1.75C0.75 1.12844 1.25344 0.625 1.875 0.625H31.125C31.7466 0.625 32.25 1.12844 32.25 1.75V17.5C32.25 18.121 31.746 18.625 31.125 18.625C30.504 18.625 30 18.121 30 17.5V3.4375C30 3.12684 29.7482 2.875 29.4375 2.875H3.5625C3.25184 2.875 3 3.12684 3 3.4375V22.5625C3 22.8732 3.25184 23.125 3.5625 23.125H29.4375Z" fill="url(#paint0_linear_2_2870)"/>
<path fill-rule="evenodd" clip-rule="evenodd" d="M24.6255 10.3151C24.9993 10.5642 25.5 10.2962 25.5 9.847V1.75C25.5 1.129 26.004 0.625 26.625 0.625C27.246 0.625 27.75 1.129 27.75 1.75V13C27.75 13.4151 27.5216 13.7959 27.156 13.9917C26.7898 14.1874 26.346 14.1661 26.0012 13.936L23.562 12.3102C23.3731 12.1843 23.1269 12.1843 22.938 12.3102L20.4988 13.936C20.154 14.1661 19.7102 14.1874 19.344 13.9917C18.9784 13.7959 18.75 13.4151 18.75 13V1.75C18.75 1.129 19.254 0.625 19.875 0.625C20.496 0.625 21 1.129 21 1.75V9.847C21 10.2962 21.5007 10.5642 21.8745 10.3151L22.6262 9.814C23.0036 9.562 23.4964 9.562 23.8738 9.814L24.6255 10.3151Z" fill="url(#paint1_linear_2_2870)"/>
<defs>
<linearGradient id="paint0_linear_2_2870" x1="2.37931" y1="2.275" x2="34.8404" y2="12.4604" gradientUnits="userSpaceOnUse">
<stop stop-color="#6763FD"/>
<stop offset="1" stop-color="#B84EF1"/>
</linearGradient>
<linearGradient id="paint1_linear_2_2870" x1="19.2155" y1="1.52499" x2="29.1353" y2="3.15539" gradientUnits="userSpaceOnUse">
<stop stop-color="#6763FD"/>
<stop offset="1" stop-color="#B84EF1"/>
</linearGradient>
</defs>
</svg>
