<svg width="40" height="40" viewBox="0 0 40 40" fill="none" xmlns="http://www.w3.org/2000/svg">
<g clip-path="url(#clip0_2_2484)">
<path d="M21.7688 20.0008L29.6335 12.136C30.1222 11.6478 30.1222 10.8557 29.6335 10.3674C29.1449 9.87882 28.3536 9.87882 27.865 10.3674L20.0002 18.2322L12.135 10.3674C11.6464 9.87882 10.8551 9.87882 10.3665 10.3674C9.87784 10.8557 9.87784 11.6478 10.3665 12.136L18.2316 20.0008L10.3665 27.8655C9.87784 28.3537 9.87784 29.1459 10.3665 29.6341C10.6108 29.878 10.931 30.0001 11.2508 30.0001C11.5705 30.0001 11.8907 29.878 12.135 29.6337L20.0002 21.7689L27.865 29.6337C28.1093 29.878 28.4295 30.0001 28.7492 30.0001C29.069 30.0001 29.3892 29.878 29.6335 29.6337C30.1222 29.1455 30.1222 28.3533 29.6335 27.8651L21.7688 20.0008Z" fill="white"/>
</g>
<defs>
<clipPath id="clip0_2_2484">
<rect width="20" height="20" fill="white" transform="translate(10 10)"/>
</clipPath>
</defs>
</svg>
