<svg width="32" height="32" viewBox="0 0 32 32" fill="none" xmlns="http://www.w3.org/2000/svg">
<path d="M28.9724 31.75H19.9026C18.3715 31.75 17.125 30.5035 17.125 28.9724V17.6526C17.125 16.1215 18.3715 14.875 19.9026 14.875H28.9724C30.5035 14.875 31.75 16.1215 31.75 17.6526V28.9724C31.75 30.5035 30.5035 31.75 28.9724 31.75ZM19.9026 17.125C19.6112 17.125 19.375 17.3612 19.375 17.6526V28.9724C19.375 29.2638 19.6112 29.5 19.9026 29.5H28.9724C29.2638 29.5 29.5 29.2638 29.5 28.9724V17.6526C29.5 17.3612 29.2638 17.125 28.9724 17.125H19.9026Z" fill="url(#paint0_linear_2_2842)"/>
<path d="M28.9724 12.625H19.9026C18.3715 12.625 17.125 11.3785 17.125 9.84738V3.02762C17.125 1.4965 18.3715 0.25 19.9026 0.25H28.9724C30.5035 0.25 31.75 1.4965 31.75 3.02762V9.84738C31.75 11.3785 30.5035 12.625 28.9724 12.625ZM19.9026 2.5C19.6112 2.5 19.375 2.73625 19.375 3.02762V9.84738C19.375 10.1388 19.6112 10.375 19.9026 10.375H28.9724C29.2638 10.375 29.5 10.1388 29.5 9.84738V3.02762C29.5 2.73625 29.2638 2.5 28.9724 2.5H19.9026Z" fill="url(#paint1_linear_2_2842)"/>
<path d="M12.0974 17.125H3.02762C1.4965 17.125 0.25 15.8785 0.25 14.3474V3.02762C0.25 1.4965 1.4965 0.25 3.02762 0.25H12.0974C13.6285 0.25 14.875 1.4965 14.875 3.02762V14.3474C14.875 15.8785 13.6285 17.125 12.0974 17.125ZM3.02762 2.5C2.73625 2.5 2.5 2.73625 2.5 3.02762V14.3474C2.5 14.6388 2.73625 14.875 3.02762 14.875H12.0974C12.3888 14.875 12.625 14.6388 12.625 14.3474V3.02762C12.625 2.73625 12.3888 2.5 12.0974 2.5H3.02762Z" fill="url(#paint2_linear_2_2842)"/>
<path d="M12.0974 31.75H3.02762C1.4965 31.75 0.25 30.5035 0.25 28.9724V22.1526C0.25 20.6215 1.4965 19.375 3.02762 19.375H12.0974C13.6285 19.375 14.875 20.6215 14.875 22.1526V28.9724C14.875 30.5035 13.6285 31.75 12.0974 31.75ZM3.02762 21.625C2.73625 21.625 2.5 21.8612 2.5 22.1526V28.9724C2.5 29.2638 2.73625 29.5 3.02762 29.5H12.0974C12.3888 29.5 12.625 29.2638 12.625 28.9724V22.1526C12.625 21.8612 12.3888 21.625 12.0974 21.625H3.02762Z" fill="url(#paint3_linear_2_2842)"/>
<defs>
<linearGradient id="paint0_linear_2_2842" x1="17.8815" y1="16" x2="33.7137" y2="19.3828" gradientUnits="userSpaceOnUse">
<stop stop-color="#6763FD"/>
<stop offset="1" stop-color="#B84EF1"/>
</linearGradient>
<linearGradient id="paint1_linear_2_2842" x1="17.8815" y1="1.075" x2="33.1411" y2="5.52105" gradientUnits="userSpaceOnUse">
<stop stop-color="#6763FD"/>
<stop offset="1" stop-color="#B84EF1"/>
</linearGradient>
<linearGradient id="paint2_linear_2_2842" x1="1.00647" y1="1.375" x2="16.8387" y2="4.75779" gradientUnits="userSpaceOnUse">
<stop stop-color="#6763FD"/>
<stop offset="1" stop-color="#B84EF1"/>
</linearGradient>
<linearGradient id="paint3_linear_2_2842" x1="1.00647" y1="20.2" x2="16.2661" y2="24.6461" gradientUnits="userSpaceOnUse">
<stop stop-color="#6763FD"/>
<stop offset="1" stop-color="#B84EF1"/>
</linearGradient>
</defs>
</svg>
