<svg width="31" height="32" viewBox="0 0 31 32" fill="none" xmlns="http://www.w3.org/2000/svg">
<path d="M15.5 10.375C12.3984 10.375 9.87498 12.8984 9.87498 16C9.87498 19.1016 12.3984 21.625 15.5 21.625C18.6016 21.625 21.125 19.1016 21.125 16C21.125 12.8984 18.6016 10.375 15.5 10.375ZM15.5 19.375C13.6392 19.375 12.125 17.8608 12.125 16C12.125 14.1392 13.6392 12.625 15.5 12.625C17.3607 12.625 18.875 14.1392 18.875 16C18.875 17.8608 17.3607 19.375 15.5 19.375Z" fill="url(#paint0_linear_889_825)"/>
<path d="M28.4668 18.2905L27.8751 17.9485C27.1708 17.5424 26.7501 16.8134 26.7501 16C26.7501 15.1866 27.1708 14.4576 27.8751 14.0515L28.4668 13.7095C30.0823 12.7769 30.6347 10.7147 29.7021 9.09925L28.5771 7.15075C27.6467 5.53863 25.5778 4.98512 23.9668 5.9155L23.3751 6.25638C22.6708 6.66363 21.8282 6.66363 21.1251 6.25638C20.4208 5.84913 20.0001 5.12125 20.0001 4.30787V3.625C20.0001 1.76425 18.4858 0.25 16.6251 0.25H14.3751C12.5143 0.25 11.0001 1.76425 11.0001 3.625V4.309C11.0001 5.12238 10.5793 5.85025 9.87506 6.2575C9.17081 6.66363 8.32931 6.66475 7.62506 6.2575L7.03331 5.9155C5.42231 4.98512 3.35344 5.53863 2.42194 7.15075L1.29694 9.09925C0.364314 10.7147 0.916689 12.7769 2.53219 13.7095L3.12506 14.0515C3.82931 14.4576 4.25006 15.1866 4.25006 16C4.25006 16.8134 3.82931 17.5424 3.12506 17.9485L2.53331 18.2905C0.917814 19.2231 0.365439 21.2852 1.29806 22.9007L2.42306 24.8493C3.35456 26.4614 5.42344 27.0149 7.03331 26.0845L7.62506 25.7436C8.32931 25.3353 9.17081 25.3375 9.87506 25.7436C10.5793 26.1509 11.0001 26.8788 11.0001 27.6921V28.375C11.0001 30.2357 12.5143 31.75 14.3751 31.75H16.6251C18.4858 31.75 20.0001 30.2357 20.0001 28.375V27.691C20.0001 26.8776 20.4208 26.1497 21.1251 25.7425C21.8282 25.3364 22.6708 25.3352 23.3751 25.7425L23.9668 26.0845C25.5778 27.0137 27.6467 26.4603 28.5771 24.8493L29.7021 22.9007C30.6347 21.2852 30.0823 19.2231 28.4668 18.2905ZM27.7536 21.7757L26.6286 23.7243C26.3169 24.2665 25.6228 24.4454 25.0918 24.136L24.5001 23.794C23.0904 22.9806 21.4086 22.9806 20.0001 23.794C18.5916 24.6074 17.7501 26.0643 17.7501 27.691V28.375C17.7501 28.9949 17.2449 29.5 16.6251 29.5H14.3751C13.7552 29.5 13.2501 28.9949 13.2501 28.375V27.691C13.2501 26.0643 12.4086 24.6074 11.0001 23.794C9.59156 22.9806 7.90856 22.9806 6.50006 23.794L5.90831 24.136C5.37169 24.4487 4.68206 24.262 4.37156 23.7243L3.24656 21.7757C2.93156 21.2301 3.12731 20.545 3.65831 20.239L4.25006 19.897C5.65856 19.0836 6.50006 17.6267 6.50006 16C6.50006 14.3733 5.65856 12.9164 4.25006 12.103L3.65831 11.761C3.12844 11.4561 2.93156 10.7699 3.24656 10.2242L4.37156 8.27575C4.68769 7.72675 5.38519 7.56025 5.90831 7.864L6.50006 8.206C7.90969 9.01937 9.59156 9.01937 11.0001 8.206C12.4086 7.39262 13.2501 5.93575 13.2501 4.309V3.625C13.2501 3.00512 13.7552 2.5 14.3751 2.5H16.6251C17.2449 2.5 17.7501 3.00512 17.7501 3.625V4.309C17.7501 5.93575 18.5916 7.39262 20.0001 8.206C21.4086 9.01937 23.0916 9.01937 24.5001 8.206L25.0918 7.864C25.6239 7.55687 26.3147 7.73125 26.6286 8.27575L27.7536 10.2242C28.0686 10.7699 27.8728 11.455 27.3418 11.761L26.7501 12.103C25.3416 12.9164 24.5001 14.3733 24.5001 16C24.5001 17.6267 25.3416 19.0836 26.7501 19.897L27.3418 20.239C27.8728 20.545 28.0686 21.2301 27.7536 21.7757Z" fill="url(#paint1_linear_889_825)"/>
<defs>
<linearGradient id="paint0_linear_889_825" x1="2.35975" y1="2.35" x2="33.8808" y2="9.58123" gradientUnits="userSpaceOnUse">
<stop stop-color="#6763FD"/>
<stop offset="1" stop-color="#B84EF1"/>
</linearGradient>
<linearGradient id="paint1_linear_889_825" x1="2.35975" y1="2.35" x2="33.8808" y2="9.58123" gradientUnits="userSpaceOnUse">
<stop stop-color="#6763FD"/>
<stop offset="1" stop-color="#B84EF1"/>
</linearGradient>
</defs>
</svg>
