<svg width="31" height="30" viewBox="0 0 31 30" fill="none" xmlns="http://www.w3.org/2000/svg">
<path d="M29 11.625H24.5C24.2016 11.625 23.9155 11.7435 23.7045 11.9545C23.4935 12.1655 23.375 12.4516 23.375 12.75C23.375 13.0484 23.4935 13.3345 23.7045 13.5455C23.9155 13.7565 24.2016 13.875 24.5 13.875H27.3212C27.627 13.875 27.875 14.123 27.875 14.4288V24C27.874 24.8948 27.5181 25.7527 26.8854 26.3854C26.2527 27.0181 25.3948 27.374 24.5 27.375C23.6051 27.3743 22.7471 27.0184 22.1143 26.3857C21.4816 25.7529 21.1257 24.8949 21.125 24V1.5C21.125 1.20163 21.0065 0.915483 20.7955 0.704505C20.5845 0.493526 20.2984 0.375 20 0.375H2C1.70163 0.375 1.41548 0.493526 1.2045 0.704505C0.993526 0.915483 0.875 1.20163 0.875 1.5C0.875 1.79837 0.993526 2.08452 1.2045 2.29549C1.41548 2.50647 1.70163 2.625 2 2.625H18.3212C18.627 2.625 18.875 2.87297 18.875 3.17885V24C18.8724 24.8447 19.0616 25.6739 19.4225 26.4272C19.6199 26.8394 19.3448 27.375 18.8877 27.375H6.5C5.60512 27.3743 4.74711 27.0184 4.11434 26.3857C3.48156 25.7529 3.12574 24.8949 3.125 24V6C3.125 5.70163 3.00647 5.41548 2.79549 5.2045C2.58452 4.99353 2.29837 4.875 2 4.875C1.70163 4.875 1.41548 4.99353 1.2045 5.2045C0.993526 5.41548 0.875 5.70163 0.875 6V24C0.875 25.4918 1.46763 26.9226 2.52252 27.9775C3.57742 29.0324 5.00816 29.625 6.5 29.625H24.5C25.9913 29.6232 27.421 29.03 28.4755 27.9755C29.53 26.921 30.1232 25.4913 30.125 24V12.75C30.125 12.4516 30.0065 12.1655 29.7955 11.9545C29.5845 11.7435 29.2984 11.625 29 11.625Z" fill="url(#paint0_linear_2_2858)"/>
<path d="M6.5 9.375H15.5C15.7984 9.375 16.0845 9.25647 16.2955 9.04549C16.5065 8.83452 16.625 8.54837 16.625 8.25C16.625 7.95163 16.5065 7.66548 16.2955 7.45451C16.0845 7.24353 15.7984 7.125 15.5 7.125H6.5C6.20163 7.125 5.91548 7.24353 5.70451 7.45451C5.49353 7.66548 5.375 7.95163 5.375 8.25C5.375 8.54837 5.49353 8.83452 5.70451 9.04549C5.91548 9.25647 6.20163 9.375 6.5 9.375Z" fill="url(#paint1_linear_2_2858)"/>
<path d="M6.5 13.875H15.5C15.7984 13.875 16.0845 13.7565 16.2955 13.5455C16.5065 13.3345 16.625 13.0484 16.625 12.75C16.625 12.4516 16.5065 12.1655 16.2955 11.9545C16.0845 11.7435 15.7984 11.625 15.5 11.625H6.5C6.20163 11.625 5.91548 11.7435 5.70451 11.9545C5.49353 12.1655 5.375 12.4516 5.375 12.75C5.375 13.0484 5.49353 13.3345 5.70451 13.5455C5.91548 13.7565 6.20163 13.875 6.5 13.875Z" fill="url(#paint2_linear_2_2858)"/>
<path d="M6.5 18.375H15.5C15.7984 18.375 16.0845 18.2565 16.2955 18.0455C16.5065 17.8345 16.625 17.5484 16.625 17.25C16.625 16.9516 16.5065 16.6655 16.2955 16.4545C16.0845 16.2435 15.7984 16.125 15.5 16.125H6.5C6.20163 16.125 5.91548 16.2435 5.70451 16.4545C5.49353 16.6655 5.375 16.9516 5.375 17.25C5.375 17.5484 5.49353 17.8345 5.70451 18.0455C5.91548 18.2565 6.20163 18.375 6.5 18.375Z" fill="url(#paint3_linear_2_2858)"/>
<path d="M8.75 20.625C8.45163 20.625 8.16548 20.7435 7.95451 20.9545C7.74353 21.1655 7.625 21.4516 7.625 21.75C7.625 22.0484 7.74353 22.3345 7.95451 22.5455C8.16548 22.7565 8.45163 22.875 8.75 22.875H13.25C13.5484 22.875 13.8345 22.7565 14.0455 22.5455C14.2565 22.3345 14.375 22.0484 14.375 21.75C14.375 21.4516 14.2565 21.1655 14.0455 20.9545C13.8345 20.7435 13.5484 20.625 13.25 20.625H8.75Z" fill="url(#paint4_linear_2_2858)"/>
<defs>
<linearGradient id="paint0_linear_2_2858" x1="2.38793" y1="2.325" x2="33.6009" y2="10.0201" gradientUnits="userSpaceOnUse">
<stop stop-color="#6763FD"/>
<stop offset="1" stop-color="#B84EF1"/>
</linearGradient>
<linearGradient id="paint1_linear_2_2858" x1="5.9569" y1="7.275" x2="11.0113" y2="13.5055" gradientUnits="userSpaceOnUse">
<stop stop-color="#6763FD"/>
<stop offset="1" stop-color="#B84EF1"/>
</linearGradient>
<linearGradient id="paint2_linear_2_2858" x1="5.9569" y1="11.775" x2="11.0113" y2="18.0055" gradientUnits="userSpaceOnUse">
<stop stop-color="#6763FD"/>
<stop offset="1" stop-color="#B84EF1"/>
</linearGradient>
<linearGradient id="paint3_linear_2_2858" x1="5.9569" y1="16.275" x2="11.0113" y2="22.5055" gradientUnits="userSpaceOnUse">
<stop stop-color="#6763FD"/>
<stop offset="1" stop-color="#B84EF1"/>
</linearGradient>
<linearGradient id="paint4_linear_2_2858" x1="7.97414" y1="20.775" x2="12.9132" y2="24.428" gradientUnits="userSpaceOnUse">
<stop stop-color="#6763FD"/>
<stop offset="1" stop-color="#B84EF1"/>
</linearGradient>
</defs>
</svg>
